<?xml version="1.0" standalone="no"?>
<!DOCTYPE svg PUBLIC "-//W3C//DTD SVG 20010904//EN"
 "http://www.w3.org/TR/2001/REC-SVG-20010904/DTD/svg10.dtd">
<svg version="1.0" xmlns="http://www.w3.org/2000/svg"
 width="2052.000000pt" height="1130.000000pt" viewBox="0 0 2052.000000 1130.000000"
 preserveAspectRatio="xMidYMid meet">

<g transform="translate(0.000000,1130.000000) scale(0.100000,-0.100000)"
fill="#000000" stroke="none">
<path d="M18825 9570 c-283 -22 -503 -115 -694 -295 -130 -123 -215 -261 -256
-415 -26 -98 -32 -316 -10 -422 51 -256 170 -463 363 -632 37 -32 260 -186
496 -343 335 -222 444 -300 500 -356 160 -160 175 -309 44 -434 -60 -58 -120
-78 -233 -77 -79 1 -112 5 -160 24 -137 53 -196 109 -328 310 -34 52 -50 68
-83 79 -39 14 -48 12 -300 -59 -298 -85 -314 -94 -314 -175 0 -61 40 -178 98
-288 133 -254 385 -456 677 -545 151 -47 231 -55 432 -49 146 4 197 10 283 32
237 59 452 184 578 335 71 85 155 259 187 383 82 326 6 625 -229 899 -101 118
-187 182 -598 453 -200 132 -394 263 -433 293 -174 132 -249 287 -197 404 30
68 84 121 154 153 53 24 76 28 148 28 209 0 344 -89 474 -313 42 -74 87 -110
135 -110 39 0 494 134 533 158 48 28 56 78 29 170 -154 526 -668 840 -1296
792z"/>
<path d="M12045 9493 c-97 -22 -99 -27 -103 -328 -3 -276 2 -312 51 -349 28
-21 39 -21 494 -24 506 -3 498 -2 522 -60 8 -20 11 -255 9 -847 l-3 -820 -23
-60 c-87 -229 -318 -381 -550 -360 -231 20 -410 159 -491 382 -31 83 -59 109
-119 106 -67 -3 -499 -153 -534 -186 -48 -43 -34 -122 52 -302 171 -361 519
-625 910 -690 138 -24 397 -16 517 14 233 58 419 167 596 348 180 183 295 409
340 667 18 107 17 2408 -1 2452 -26 61 7 59 -857 60 -434 1 -799 0 -810 -3z"/>
<path d="M14415 9494 c-39 -10 -67 -29 -81 -56 -12 -23 -14 -277 -14 -1700 0
-1859 -6 -1704 66 -1734 47 -20 520 -20 567 -1 65 27 62 4 67 521 5 424 7 475
23 511 18 39 138 206 185 258 35 37 79 37 114 0 14 -16 166 -293 338 -618 172
-324 324 -605 338 -624 45 -60 61 -63 388 -59 280 3 294 4 321 24 24 19 28 28
27 70 -1 44 -45 133 -480 954 -461 872 -478 907 -479 960 0 43 5 63 25 90 13
19 227 310 476 645 248 336 456 620 462 632 7 12 12 38 12 57 0 28 -6 40 -27
53 -24 16 -57 18 -333 18 -168 0 -317 -3 -332 -8 -15 -4 -44 -22 -65 -40 -20
-17 -224 -282 -454 -588 -229 -306 -425 -559 -434 -563 -35 -13 -65 -6 -82 21
-17 25 -18 72 -23 568 -3 297 -9 548 -13 557 -5 9 -21 25 -35 35 -24 16 -54
18 -282 20 -140 1 -264 -1 -275 -3z"/>
<path d="M17275 9494 c-49 -12 -73 -27 -86 -52 -20 -39 -26 -930 -7 -987 24
-70 49 -80 207 -80 102 0 145 4 165 15 56 30 56 28 56 544 0 338 -3 482 -12
500 -22 49 -53 60 -183 62 -66 2 -129 1 -140 -2z"/>
<path d="M14780 4910 c-195 -15 -352 -59 -535 -150 -381 -189 -721 -594 -864
-1030 -105 -320 -126 -728 -55 -1070 74 -354 230 -638 498 -905 221 -221 455
-350 754 -418 85 -19 127 -22 332 -22 255 0 333 11 507 71 519 178 950 683
1073 1259 72 336 59 713 -36 1039 -102 352 -335 692 -629 920 -106 82 -159
115 -285 175 -222 106 -491 152 -760 131z m273 -724 c163 -31 301 -108 428
-237 160 -162 274 -382 320 -614 18 -91 19 -398 1 -480 -56 -258 -194 -494
-375 -645 -83 -70 -222 -141 -322 -166 -97 -24 -295 -24 -390 0 -342 88 -616
408 -696 811 -19 93 -19 386 0 480 72 368 318 696 605 810 136 53 288 68 429
41z"/>
<path d="M18410 4910 c-195 -15 -352 -59 -535 -150 -381 -189 -721 -594 -864
-1030 -105 -320 -126 -728 -55 -1070 74 -354 230 -638 498 -905 221 -221 455
-350 754 -418 85 -19 127 -22 332 -22 205 0 247 3 332 22 353 80 644 264 887
561 263 323 401 726 401 1172 0 126 -2 138 -21 156 -20 18 -49 19 -851 19
l-830 0 -29 -33 -29 -32 0 -278 c0 -240 2 -281 16 -301 34 -48 58 -51 436 -51
378 0 389 -2 417 -51 13 -23 12 -30 -9 -74 -29 -59 -173 -207 -258 -264 -75
-51 -177 -95 -269 -118 -95 -23 -295 -23 -388 1 -342 88 -616 408 -696 811
-19 93 -19 386 0 480 46 232 160 452 320 614 201 204 442 284 716 236 216 -38
401 -163 547 -371 108 -153 100 -153 389 -34 123 51 238 99 254 107 43 22 65
53 65 93 0 71 -137 282 -283 436 -338 357 -775 530 -1247 494z"/>
<path d="M2155 4864 c-39 -10 -67 -29 -81 -56 -12 -23 -14 -277 -14 -1700 0
-1531 1 -1676 16 -1697 36 -50 43 -51 623 -51 665 0 768 9 998 85 236 79 447
216 632 411 122 129 202 242 277 390 132 261 187 507 187 844 1 417 -92 738
-304 1055 -93 140 -312 362 -444 452 -146 99 -313 177 -460 214 -188 49 -209
50 -825 54 -322 2 -594 2 -605 -1z m1165 -730 c198 -37 346 -125 493 -293 188
-215 278 -488 264 -811 -18 -436 -264 -789 -637 -912 -95 -32 -96 -32 -352
-36 l-258 -4 -29 29 c-22 23 -31 42 -36 84 -3 30 -5 466 -3 969 3 1004 0 947
63 976 45 20 387 19 495 -2z"/>
<path d="M5395 4863 c-38 -8 -67 -28 -81 -55 -12 -23 -14 -277 -14 -1700 0
-1531 1 -1676 16 -1697 37 -52 12 -51 1011 -51 1048 0 985 -5 1011 75 19 56
13 538 -7 576 -27 54 -19 54 -669 59 l-604 5 -23 27 c-32 38 -37 93 -33 358 3
249 8 268 70 289 21 7 207 11 555 11 562 0 571 1 607 51 14 20 16 60 16 296 0
290 -3 309 -49 340 -24 17 -72 18 -584 23 l-559 5 -23 27 c-32 38 -37 93 -33
358 3 249 8 268 70 289 21 7 221 11 603 11 382 0 582 4 603 11 65 22 67 34 67
334 0 293 -4 321 -53 346 -22 12 -187 14 -952 15 -509 1 -934 0 -945 -3z"/>
<path d="M8020 4860 c-135 -3 -246 -7 -247 -8 -34 -33 -43 -51 -43 -84 0 -44
1179 -3278 1218 -3341 35 -58 68 -67 232 -67 157 0 182 7 223 62 36 49 1220
3292 1221 3345 1 32 -5 48 -22 65 -22 23 -28 23 -313 29 -160 4 -307 3 -326
-1 -44 -10 -81 -44 -104 -95 -10 -22 -148 -387 -308 -812 -159 -424 -297 -785
-306 -802 -38 -74 -97 -75 -133 -4 -11 21 -153 394 -316 828 -164 435 -305
803 -314 820 -27 46 -74 67 -150 70 -37 1 -177 -1 -312 -5z"/>
<path d="M11185 4864 c-39 -10 -67 -29 -81 -56 -12 -23 -14 -277 -14 -1700 0
-1859 -6 -1704 66 -1734 50 -21 1738 -21 1788 0 65 27 66 31 66 333 0 290 -3
309 -49 340 -24 17 -72 18 -568 23 -534 5 -543 5 -563 26 -12 12 -25 39 -30
60 -6 22 -10 597 -10 1331 0 955 -3 1299 -12 1317 -26 58 -40 61 -318 63 -140
1 -264 -1 -275 -3z"/>
</g>
</svg>
